<?xml version="1.0" standalone="no"?>
<!DOCTYPE svg PUBLIC "-//W3C//DTD SVG 1.1//EN" "http://www.w3.org/Graphics/SVG/1.1/DTD/svg11.dtd">
<svg width="78mm" height="78mm" viewBox="-39 -39 78 78" xmlns="http://www.w3.org/2000/svg" version="1.1">
<title>OpenSCAD Model</title>
<path d="
M 2.40173,38.1745 L 4.79399,37.9484 L 7.16733,37.5725 L 9.51237,37.0483 L 11.8199,36.3779 L 14.0807,35.5639
 L 16.2861,34.6096 L 18.4271,33.5187 L 20.4954,32.2955 L 22.4828,30.9449 L 24.3815,29.4721 L 26.1839,27.883
 L 27.883,26.1839 L 29.4721,24.3815 L 30.9449,22.4828 L 32.2955,20.4954 L 33.5187,18.4271 L 34.6096,16.2861
 L 35.5639,14.0807 L 36.3779,11.8199 L 37.0483,9.51237 L 37.5725,7.16733 L 37.9484,4.79399 L 38.1745,2.40173
 L 38.25,-0 L 38.1745,-2.40173 L 37.9484,-4.79399 L 37.5725,-7.16733 L 37.0483,-9.51237 L 36.3779,-11.8199
 L 35.5639,-14.0807 L 34.6096,-16.2861 L 33.5187,-18.4271 L 32.2955,-20.4954 L 30.9449,-22.4828 L 29.4721,-24.3815
 L 27.883,-26.1839 L 26.1839,-27.883 L 24.3815,-29.4721 L 22.4828,-30.9449 L 20.4954,-32.2955 L 18.4271,-33.5187
 L 16.2861,-34.6096 L 14.0807,-35.5639 L 11.8199,-36.3779 L 9.51237,-37.0483 L 7.16733,-37.5725 L 4.79399,-37.9484
 L 2.40173,-38.1745 L 0,-38.25 L -2.40173,-38.1745 L -4.79399,-37.9484 L -7.16733,-37.5725 L -9.51237,-37.0483
 L -11.8199,-36.3779 L -14.0807,-35.5639 L -16.2861,-34.6096 L -18.4271,-33.5187 L -20.4954,-32.2955 L -22.4828,-30.9449
 L -24.3815,-29.4721 L -26.1839,-27.883 L -27.883,-26.1839 L -29.4721,-24.3815 L -30.9449,-22.4828 L -32.2955,-20.4954
 L -33.5187,-18.4271 L -34.6096,-16.2861 L -35.5639,-14.0807 L -36.3779,-11.8199 L -37.0483,-9.51237 L -37.5725,-7.16733
 L -37.9484,-4.79399 L -38.1745,-2.40173 L -38.25,-0 L -38.1745,2.40173 L -37.9484,4.79399 L -37.5725,7.16733
 L -37.0483,9.51237 L -36.3779,11.8199 L -35.5639,14.0807 L -34.6096,16.2861 L -33.5187,18.4271 L -32.2955,20.4954
 L -30.9449,22.4828 L -29.4721,24.3815 L -27.883,26.1839 L -26.1839,27.883 L -24.3815,29.4721 L -22.4828,30.9449
 L -20.4954,32.2955 L -18.4271,33.5187 L -16.2861,34.6096 L -14.0807,35.5639 L -11.8199,36.3779 L -9.51237,37.0483
 L -7.16733,37.5725 L -4.79399,37.9484 L -2.40173,38.1745 L 0,38.25 z
M -2.00929,31.9368 L -4.01065,31.7477 L -5.9962,31.4332 L -7.95807,30.9947 L -9.88853,30.4338 L -11.78,29.7528
 L -13.6249,28.9545 L -15.4161,28.0418 L -17.1465,27.0185 L -18.8091,25.8885 L -20.3976,24.6564 L -21.9055,23.327
 L -23.327,21.9055 L -24.6564,20.3976 L -25.8885,18.8091 L -27.0185,17.1465 L -28.0418,15.4161 L -28.9545,13.6249
 L -29.7528,11.78 L -30.4338,9.88853 L -30.9947,7.95807 L -31.4332,5.9962 L -31.7477,4.01065 L -31.9368,2.00929
 L -32,-0 L -31.9368,-2.00929 L -31.7477,-4.01065 L -31.4332,-5.9962 L -30.9947,-7.95807 L -30.4338,-9.88853
 L -29.7528,-11.78 L -28.9545,-13.6249 L -28.0418,-15.4161 L -27.0185,-17.1465 L -25.8885,-18.8091 L -24.6564,-20.3976
 L -23.327,-21.9055 L -21.9055,-23.327 L -20.3976,-24.6564 L -18.8091,-25.8885 L -17.1465,-27.0185 L -15.4161,-28.0418
 L -13.6249,-28.9545 L -11.78,-29.7528 L -9.88853,-30.4338 L -7.95807,-30.9947 L -5.9962,-31.4332 L -4.01065,-31.7477
 L -2.00929,-31.9368 L 0,-32 L 2.00929,-31.9368 L 4.01065,-31.7477 L 5.9962,-31.4332 L 7.95807,-30.9947
 L 9.88853,-30.4338 L 11.78,-29.7528 L 13.6249,-28.9545 L 15.4161,-28.0418 L 17.1465,-27.0185 L 18.8091,-25.8885
 L 20.3976,-24.6564 L 21.9055,-23.327 L 23.327,-21.9055 L 24.6564,-20.3976 L 25.8885,-18.8091 L 27.0185,-17.1465
 L 28.0418,-15.4161 L 28.9545,-13.6249 L 29.7528,-11.78 L 30.4338,-9.88853 L 30.9947,-7.95807 L 31.4332,-5.9962
 L 31.7477,-4.01065 L 31.9368,-2.00929 L 32,-0 L 31.9368,2.00929 L 31.7477,4.01065 L 31.4332,5.9962
 L 30.9947,7.95807 L 30.4338,9.88853 L 29.7528,11.78 L 28.9545,13.6249 L 28.0418,15.4161 L 27.0185,17.1465
 L 25.8885,18.8091 L 24.6564,20.3976 L 23.327,21.9055 L 21.9055,23.327 L 20.3976,24.6564 L 18.8091,25.8885
 L 17.1465,27.0185 L 15.4161,28.0418 L 13.6249,28.9545 L 11.78,29.7528 L 9.88853,30.4338 L 7.95807,30.9947
 L 5.9962,31.4332 L 4.01065,31.7477 L 2.00929,31.9368 L 0,32 z
" stroke="black" fill="lightgray" stroke-width="0.5"/>
</svg>
