<?xml version="1.0" standalone="no"?>
<!DOCTYPE svg PUBLIC "-//W3C//DTD SVG 1.1//EN" "http://www.w3.org/Graphics/SVG/1.1/DTD/svg11.dtd">
<svg width="46mm" height="46mm" viewBox="-23 -23 46 46" xmlns="http://www.w3.org/2000/svg" version="1.1">
<title>OpenSCAD Model</title>
<path d="
M 1.39708,22.2061 L 2.78865,22.0745 L 4.16922,21.8559 L 5.53334,21.551 L 6.87563,21.161 L 8.19077,20.6875
 L 9.47359,20.1324 L 10.719,19.4978 L 11.9221,18.7863 L 13.0782,18.0006 L 14.1827,17.1439 L 15.2312,16.2195
 L 16.2195,15.2312 L 17.1439,14.1827 L 18.0006,13.0782 L 18.7863,11.9221 L 19.4978,10.719 L 20.1324,9.47359
 L 20.6875,8.19077 L 21.161,6.87563 L 21.551,5.53334 L 21.8559,4.16922 L 22.0745,2.78865 L 22.2061,1.39708
 L 22.25,-0 L 22.2061,-1.39708 L 22.0745,-2.78865 L 21.8559,-4.16922 L 21.551,-5.53334 L 21.161,-6.87563
 L 20.6875,-8.19077 L 20.1324,-9.47359 L 19.4978,-10.719 L 18.7863,-11.9221 L 18.0006,-13.0782 L 17.1439,-14.1827
 L 16.2195,-15.2312 L 15.2312,-16.2195 L 14.1827,-17.1439 L 13.0782,-18.0006 L 11.9221,-18.7863 L 10.719,-19.4978
 L 9.47359,-20.1324 L 8.19077,-20.6875 L 6.87563,-21.161 L 5.53334,-21.551 L 4.16922,-21.8559 L 2.78865,-22.0745
 L 1.39708,-22.2061 L 0,-22.25 L -1.39708,-22.2061 L -2.78865,-22.0745 L -4.16922,-21.8559 L -5.53334,-21.551
 L -6.87563,-21.161 L -8.19077,-20.6875 L -9.47359,-20.1324 L -10.719,-19.4978 L -11.9221,-18.7863 L -13.0782,-18.0006
 L -14.1827,-17.1439 L -15.2312,-16.2195 L -16.2195,-15.2312 L -17.1439,-14.1827 L -18.0006,-13.0782 L -18.7863,-11.9221
 L -19.4978,-10.719 L -20.1324,-9.47359 L -20.6875,-8.19077 L -21.161,-6.87563 L -21.551,-5.53334 L -21.8559,-4.16922
 L -22.0745,-2.78865 L -22.2061,-1.39708 L -22.25,-0 L -22.2061,1.39708 L -22.0745,2.78865 L -21.8559,4.16922
 L -21.551,5.53334 L -21.161,6.87563 L -20.6875,8.19077 L -20.1324,9.47359 L -19.4978,10.719 L -18.7863,11.9221
 L -18.0006,13.0782 L -17.1439,14.1827 L -16.2195,15.2312 L -15.2312,16.2195 L -14.1827,17.1439 L -13.0782,18.0006
 L -11.9221,18.7863 L -10.719,19.4978 L -9.47359,20.1324 L -8.19077,20.6875 L -6.87563,21.161 L -5.53334,21.551
 L -4.16922,21.8559 L -2.78865,22.0745 L -1.39708,22.2061 L 0,22.25 z
M -1.11452,17.715 L -2.22466,17.61 L -3.326,17.4356 L -4.41423,17.1923 L -5.48505,16.8812 L -6.53421,16.5035
 L -7.55757,16.0607 L -8.55112,15.5544 L -9.51093,14.9868 L -10.4332,14.36 L -11.3143,13.6766 L -12.1507,12.9392
 L -12.9392,12.1507 L -13.6766,11.3143 L -14.36,10.4332 L -14.9868,9.51093 L -15.5544,8.55112 L -16.0607,7.55757
 L -16.5035,6.53421 L -16.8812,5.48505 L -17.1923,4.41423 L -17.4356,3.326 L -17.61,2.22466 L -17.715,1.11452
 L -17.75,-0 L -17.715,-1.11452 L -17.61,-2.22466 L -17.4356,-3.326 L -17.1923,-4.41423 L -16.8812,-5.48505
 L -16.5035,-6.53421 L -16.0607,-7.55757 L -15.5544,-8.55112 L -14.9868,-9.51093 L -14.36,-10.4332 L -13.6766,-11.3143
 L -12.9392,-12.1507 L -12.1507,-12.9392 L -11.3143,-13.6766 L -10.4332,-14.36 L -9.51093,-14.9868 L -8.55112,-15.5544
 L -7.55757,-16.0607 L -6.53421,-16.5035 L -5.48505,-16.8812 L -4.41423,-17.1923 L -3.326,-17.4356 L -2.22466,-17.61
 L -1.11452,-17.715 L 0,-17.75 L 1.11452,-17.715 L 2.22466,-17.61 L 3.326,-17.4356 L 4.41423,-17.1923
 L 5.48505,-16.8812 L 6.53421,-16.5035 L 7.55757,-16.0607 L 8.55112,-15.5544 L 9.51093,-14.9868 L 10.4332,-14.36
 L 11.3143,-13.6766 L 12.1507,-12.9392 L 12.9392,-12.1507 L 13.6766,-11.3143 L 14.36,-10.4332 L 14.9868,-9.51093
 L 15.5544,-8.55112 L 16.0607,-7.55757 L 16.5035,-6.53421 L 16.8812,-5.48505 L 17.1923,-4.41423 L 17.4356,-3.326
 L 17.61,-2.22466 L 17.715,-1.11452 L 17.75,-0 L 17.715,1.11452 L 17.61,2.22466 L 17.4356,3.326
 L 17.1923,4.41423 L 16.8812,5.48505 L 16.5035,6.53421 L 16.0607,7.55757 L 15.5544,8.55112 L 14.9868,9.51093
 L 14.36,10.4332 L 13.6766,11.3143 L 12.9392,12.1507 L 12.1507,12.9392 L 11.3143,13.6766 L 10.4332,14.36
 L 9.51093,14.9868 L 8.55112,15.5544 L 7.55757,16.0607 L 6.53421,16.5035 L 5.48505,16.8812 L 4.41423,17.1923
 L 3.326,17.4356 L 2.22466,17.61 L 1.11452,17.715 L 0,17.75 z
" stroke="black" fill="lightgray" stroke-width="0.5"/>
</svg>
