<?xml version="1.0" standalone="no"?>
<!DOCTYPE svg PUBLIC "-//W3C//DTD SVG 1.1//EN" "http://www.w3.org/Graphics/SVG/1.1/DTD/svg11.dtd">
<svg width="60mm" height="60mm" viewBox="-30 -30 60 60" xmlns="http://www.w3.org/2000/svg" version="1.1">
<title>OpenSCAD Model</title>
<path d="
M 1.86801,29.6913 L 3.72865,29.5154 L 5.57458,29.223 L 7.39851,28.8153 L 9.19325,28.2939 L 10.9517,27.6608
 L 12.6669,26.9186 L 14.3322,26.0701 L 15.9408,25.1187 L 17.4866,24.0683 L 18.9634,22.9228 L 20.3653,21.6868
 L 21.6868,20.3653 L 22.9228,18.9634 L 24.0683,17.4866 L 25.1187,15.9408 L 26.0701,14.3322 L 26.9186,12.6669
 L 27.6608,10.9517 L 28.2939,9.19325 L 28.8153,7.39851 L 29.223,5.57458 L 29.5154,3.72865 L 29.6913,1.86801
 L 29.75,-0 L 29.6913,-1.86801 L 29.5154,-3.72865 L 29.223,-5.57458 L 28.8153,-7.39851 L 28.2939,-9.19325
 L 27.6608,-10.9517 L 26.9186,-12.6669 L 26.0701,-14.3322 L 25.1187,-15.9408 L 24.0683,-17.4866 L 22.9228,-18.9634
 L 21.6868,-20.3653 L 20.3653,-21.6868 L 18.9634,-22.9228 L 17.4866,-24.0683 L 15.9408,-25.1187 L 14.3322,-26.0701
 L 12.6669,-26.9186 L 10.9517,-27.6608 L 9.19325,-28.2939 L 7.39851,-28.8153 L 5.57458,-29.223 L 3.72865,-29.5154
 L 1.86801,-29.6913 L 0,-29.75 L -1.86801,-29.6913 L -3.72865,-29.5154 L -5.57458,-29.223 L -7.39851,-28.8153
 L -9.19325,-28.2939 L -10.9517,-27.6608 L -12.6669,-26.9186 L -14.3322,-26.0701 L -15.9408,-25.1187 L -17.4866,-24.0683
 L -18.9634,-22.9228 L -20.3653,-21.6868 L -21.6868,-20.3653 L -22.9228,-18.9634 L -24.0683,-17.4866 L -25.1187,-15.9408
 L -26.0701,-14.3322 L -26.9186,-12.6669 L -27.6608,-10.9517 L -28.2939,-9.19325 L -28.8153,-7.39851 L -29.223,-5.57458
 L -29.5154,-3.72865 L -29.6913,-1.86801 L -29.75,-0 L -29.6913,1.86801 L -29.5154,3.72865 L -29.223,5.57458
 L -28.8153,7.39851 L -28.2939,9.19325 L -27.6608,10.9517 L -26.9186,12.6669 L -26.0701,14.3322 L -25.1187,15.9408
 L -24.0683,17.4866 L -22.9228,18.9634 L -21.6868,20.3653 L -20.3653,21.6868 L -18.9634,22.9228 L -17.4866,24.0683
 L -15.9408,25.1187 L -14.3322,26.0701 L -12.6669,26.9186 L -10.9517,27.6608 L -9.19325,28.2939 L -7.39851,28.8153
 L -5.57458,29.223 L -3.72865,29.5154 L -1.86801,29.6913 L 0,29.75 z
M -1.41278,22.4556 L -2.81999,22.3226 L -4.21606,22.1015 L -5.59552,21.7931 L -6.95288,21.3988 L -8.28279,20.92
 L -9.58003,20.3586 L -10.8394,19.7169 L -12.0561,18.9974 L -13.2252,18.2029 L -14.342,17.3365 L -15.4023,16.4018
 L -16.4018,15.4023 L -17.3365,14.342 L -18.2029,13.2252 L -18.9974,12.0561 L -19.7169,10.8394 L -20.3586,9.58003
 L -20.92,8.28279 L -21.3988,6.95288 L -21.7931,5.59552 L -22.1015,4.21606 L -22.3226,2.81999 L -22.4556,1.41278
 L -22.5,-0 L -22.4556,-1.41278 L -22.3226,-2.81999 L -22.1015,-4.21606 L -21.7931,-5.59552 L -21.3988,-6.95288
 L -20.92,-8.28279 L -20.3586,-9.58003 L -19.7169,-10.8394 L -18.9974,-12.0561 L -18.2029,-13.2252 L -17.3365,-14.342
 L -16.4018,-15.4023 L -15.4023,-16.4018 L -14.342,-17.3365 L -13.2252,-18.2029 L -12.0561,-18.9974 L -10.8394,-19.7169
 L -9.58003,-20.3586 L -8.28279,-20.92 L -6.95288,-21.3988 L -5.59552,-21.7931 L -4.21606,-22.1015 L -2.81999,-22.3226
 L -1.41278,-22.4556 L 0,-22.5 L 1.41278,-22.4556 L 2.81999,-22.3226 L 4.21606,-22.1015 L 5.59552,-21.7931
 L 6.95288,-21.3988 L 8.28279,-20.92 L 9.58003,-20.3586 L 10.8394,-19.7169 L 12.0561,-18.9974 L 13.2252,-18.2029
 L 14.342,-17.3365 L 15.4023,-16.4018 L 16.4018,-15.4023 L 17.3365,-14.342 L 18.2029,-13.2252 L 18.9974,-12.0561
 L 19.7169,-10.8394 L 20.3586,-9.58003 L 20.92,-8.28279 L 21.3988,-6.95288 L 21.7931,-5.59552 L 22.1015,-4.21606
 L 22.3226,-2.81999 L 22.4556,-1.41278 L 22.5,-0 L 22.4556,1.41278 L 22.3226,2.81999 L 22.1015,4.21606
 L 21.7931,5.59552 L 21.3988,6.95288 L 20.92,8.28279 L 20.3586,9.58003 L 19.7169,10.8394 L 18.9974,12.0561
 L 18.2029,13.2252 L 17.3365,14.342 L 16.4018,15.4023 L 15.4023,16.4018 L 14.342,17.3365 L 13.2252,18.2029
 L 12.0561,18.9974 L 10.8394,19.7169 L 9.58003,20.3586 L 8.28279,20.92 L 6.95288,21.3988 L 5.59552,21.7931
 L 4.21606,22.1015 L 2.81999,22.3226 L 1.41278,22.4556 L 0,22.5 z
" stroke="black" fill="lightgray" stroke-width="0.5"/>
</svg>
